<svg id="Capa_1" data-name="Capa 1" xmlns="http://www.w3.org/2000/svg" viewBox="0 0 1000 1000"><defs><style>.cls-1{fill:#1d1d1b;}.cls-2{fill:#f5931e;}</style></defs><title>Isologos Coder Mount</title><path class="cls-1" d="M258.12,750.48,302,713c133.36,105.62,267.81,107.68,406.41,4.4,13.4,11.29,28.29,23.85,43.27,36.49C636.25,874.69,407.76,899.3,258.12,750.48Z"/><path class="cls-1" d="M346.66,180.86C174.18,268.69,122.22,462.42,168.08,596.64L220,557.4s-4.19-31.06-5.85-48.85c-3.83-118.12,47-210.28,152.25-268.44,107.48-59.39,215.35-50,315.68,20.68,27.31,19.25,49.28,46.07,74.62,70.29l41.67-35.17C713.2,163.47,517.77,93.72,346.66,180.86Z"/><path class="cls-2" d="M797.19,485.08c-36.39-32.12-74.31-62.5-111.71-93.41l-182.63,153L323.45,394.33l-.1.06-.54-.69-8.87,6.91A170.19,170.19,0,0,0,299,412.23l-14.45,11.25q-9.9,40-9.09,85.6l46.11-37L503,623.94l182.7-153.21,110.81,91,2.69-73.94A9.56,9.56,0,0,0,797.19,485.08Z"/></svg>