<svg width="25" height="25" viewBox="0 0 25 25" fill="none" xmlns="http://www.w3.org/2000/svg">
	<path fill-rule="evenodd" clip-rule="evenodd"
		d="M12.25 18.7954C15.865 18.7954 18.7955 15.8649 18.7955 12.25C18.7955 8.63503 15.865 5.70453 12.25 5.70453C8.63509 5.70453 5.70459 8.63503 5.70459 12.25C5.70459 15.8649 8.63509 18.7954 12.25 18.7954ZM12.25 16.6136C14.66 16.6136 16.6137 14.6599 16.6137 12.25C16.6137 9.84001 14.66 7.88635 12.25 7.88635C9.84007 7.88635 7.88641 9.84001 7.88641 12.25C7.88641 14.6599 9.84007 16.6136 12.25 16.6136Z"
		fill="#03FFFF" stroke="black" stroke-width="0.00064" />
	<path
		d="M18.7955 4.61359C18.193 4.61359 17.7046 5.10201 17.7046 5.7045C17.7046 6.30698 18.193 6.7954 18.7955 6.7954C19.398 6.7954 19.8864 6.30698 19.8864 5.7045C19.8864 5.10201 19.398 4.61359 18.7955 4.61359Z"
		fill="#03FFFF" stroke="black" stroke-width="0.00064" />
	<path fill-rule="evenodd" clip-rule="evenodd"
		d="M0.963411 3.82388C0.25 5.22403 0.25 7.05694 0.25 10.7227V13.7773C0.25 17.4431 0.25 19.276 0.963411 20.6761C1.59095 21.9077 2.59227 22.9091 3.82388 23.5365C5.22403 24.25 7.05694 24.25 10.7227 24.25H13.7773C17.4431 24.25 19.276 24.25 20.6761 23.5365C21.9077 22.9091 22.9091 21.9077 23.5365 20.6761C24.25 19.276 24.25 17.4431 24.25 13.7773V10.7227C24.25 7.05694 24.25 5.22403 23.5365 3.82388C22.9091 2.59227 21.9077 1.59095 20.6761 0.963411C19.276 0.25 17.4431 0.25 13.7773 0.25H10.7227C7.05694 0.25 5.22403 0.25 3.82388 0.963411C2.59227 1.59095 1.59095 2.59227 0.963411 3.82388ZM13.7773 2.43182H10.7227C8.85383 2.43182 7.58336 2.43352 6.60136 2.51375C5.64481 2.5919 5.15564 2.73355 4.81441 2.90742C3.99333 3.32579 3.32579 3.99333 2.90742 4.81441C2.73355 5.15564 2.5919 5.64481 2.51375 6.60136C2.43352 7.58336 2.43182 8.85383 2.43182 10.7227V13.7773C2.43182 15.6462 2.43352 16.9166 2.51375 17.8986C2.5919 18.8552 2.73355 19.3444 2.90742 19.6856C3.32579 20.5067 3.99333 21.1742 4.81441 21.5925C5.15564 21.7664 5.64481 21.9081 6.60136 21.9863C7.58336 22.0664 8.85383 22.0682 10.7227 22.0682H13.7773C15.6462 22.0682 16.9166 22.0664 17.8986 21.9863C18.8552 21.9081 19.3444 21.7664 19.6856 21.5925C20.5067 21.1742 21.1742 20.5067 21.5925 19.6856C21.7664 19.3444 21.9081 18.8552 21.9863 17.8986C22.0664 16.9166 22.0682 15.6462 22.0682 13.7773V10.7227C22.0682 8.85383 22.0664 7.58336 21.9863 6.60136C21.9081 5.64481 21.7664 5.15564 21.5925 4.81441C21.1742 3.99333 20.5067 3.32579 19.6856 2.90742C19.3444 2.73355 18.8552 2.5919 17.8986 2.51375C16.9166 2.43352 15.6462 2.43182 13.7773 2.43182Z"
		fill="#03FFFF" stroke="black" stroke-width="0.00064" />
</svg>
