<svg width="24" height="24" viewBox="0 0 24 24" fill="none" xmlns="http://www.w3.org/2000/svg">
	<path
		d="M19.0876 2.93617C17.1944 1.04273 14.6773 0 12 0C12.0002 0 11.9998 0 12 0C9.32272 0 6.80536 1.04283 4.91229 2.93617C3.01902 4.8296 1.97644 7.34722 1.97644 10.0249C1.97644 12.7025 3.01912 15.2201 4.91229 17.1135L5.26858 17.4698C5.31389 17.5151 5.36769 17.5511 5.4269 17.5756C5.48612 17.6002 5.54958 17.6128 5.61368 17.6128C5.67777 17.6128 5.74124 17.6002 5.80045 17.5756C5.85967 17.5511 5.91346 17.5151 5.95877 17.4698C6.05026 17.3782 6.10165 17.2541 6.10165 17.1246C6.10165 16.9952 6.05026 16.8711 5.95877 16.7795L5.60238 16.4233C2.07504 12.8952 2.07504 7.15459 5.60238 3.62665C9.12992 0.0986116 14.8697 0.0986116 18.3973 3.62665C21.9248 7.15459 21.9248 12.8952 18.3973 16.4233L12 22.8215L9.54141 20.3625C9.44984 20.2711 9.32572 20.2197 9.19632 20.2197C9.06691 20.2197 8.94279 20.2711 8.85122 20.3625C8.75973 20.4541 8.70834 20.5783 8.70834 20.7077C8.70834 20.8372 8.75973 20.9614 8.85122 21.0529L11.6549 23.857C11.7501 23.9523 11.8751 24 12 24C12.1249 24 12.2499 23.9523 12.3451 23.857L19.0878 17.1134C20.9809 15.22 22.0235 12.7025 22.0235 10.0248C22.0235 7.34722 20.9808 4.8297 19.0876 2.93617Z"
		fill="url(#paint0_linear_331_7)" />
	<path
		d="M7.04682 17.8688C6.95358 17.7796 6.82912 17.7304 6.70008 17.7318C6.57104 17.7333 6.44768 17.7851 6.35642 17.8764C6.26516 17.9676 6.21326 18.091 6.21182 18.22C6.21039 18.349 6.25953 18.4735 6.34873 18.5667L7.74117 19.959C7.78692 20.0049 7.84132 20.0413 7.90121 20.0662C7.96111 20.091 8.02533 20.1037 8.09017 20.1036C8.18776 20.1035 8.28315 20.0745 8.36428 20.0203C8.4454 19.966 8.50863 19.889 8.54598 19.7988C8.58333 19.7087 8.59311 19.6094 8.5741 19.5137C8.55509 19.418 8.50813 19.3301 8.43916 19.261L7.04682 17.8688Z"
		fill="url(#paint1_linear_331_7)" />
	<path
		d="M14.2223 7.79223C14.4354 8.00194 14.6176 8.24001 14.7637 8.49953C14.8279 8.61361 14.9353 8.69791 15.0625 8.73389C15.1896 8.76988 15.3261 8.75461 15.4418 8.69144C15.5575 8.62822 15.643 8.52229 15.6794 8.39695C15.7159 8.2716 15.7004 8.13711 15.6363 8.02303C15.4451 7.68321 15.2066 7.37148 14.9276 7.09693C14.6714 6.84389 14.3831 6.62448 14.07 6.44413C13.9559 6.38102 13.8212 6.36462 13.695 6.39846C13.5687 6.43231 13.461 6.51369 13.3951 6.62508C13.3291 6.73647 13.3102 6.86895 13.3423 6.99397C13.3745 7.11899 13.4552 7.22655 13.567 7.29347C13.8064 7.43117 14.0266 7.59882 14.2223 7.79223Z"
		fill="url(#paint2_linear_331_7)" />
	<path
		d="M12.2694 6.86668C12.3975 6.87483 12.5238 6.83242 12.6211 6.74853C12.7184 6.66465 12.779 6.54598 12.7898 6.41796C12.8007 6.28994 12.7609 6.16277 12.6791 6.06371C12.5973 5.96465 12.48 5.90159 12.3522 5.88806C11.7499 5.83645 11.1436 5.91721 10.5757 6.12469C10.0079 6.33216 9.4923 6.66133 9.06506 7.08913C8.28109 7.87317 7.84937 8.91568 7.84937 10.0247C7.84937 11.1336 8.28109 12.1761 9.06506 12.9602C9.87448 13.7697 10.937 14.1742 12 14.1741C13.0627 14.174 14.1259 13.7695 14.9349 12.9602C15.3508 12.5439 15.6735 12.044 15.8818 11.4935C16.09 10.9431 16.1789 10.3547 16.1427 9.76733C16.1387 9.70295 16.1222 9.63997 16.0939 9.58199C16.0656 9.52402 16.0262 9.47219 15.9779 9.42948C15.9296 9.38676 15.8733 9.354 15.8123 9.33306C15.7513 9.31212 15.6868 9.30342 15.6224 9.30745C15.5581 9.31142 15.4951 9.32804 15.4372 9.35635C15.3793 9.38465 15.3275 9.4241 15.2848 9.47243C15.2421 9.52076 15.2094 9.57703 15.1884 9.63802C15.1675 9.69901 15.1587 9.76354 15.1627 9.8279C15.1905 10.2764 15.1226 10.7257 14.9636 11.146C14.8046 11.5663 14.5582 11.9479 14.2406 12.2658C13.0052 13.5014 10.9949 13.5014 9.75951 12.2658C9.16102 11.6672 8.8313 10.8713 8.8313 10.0248C8.8313 9.17817 9.16092 8.38235 9.75951 7.78373C10.0856 7.45697 10.4793 7.20556 10.9129 7.04714C11.3465 6.88872 11.8094 6.82713 12.2694 6.86668Z"
		fill="url(#paint3_linear_331_7)" />
	<defs>
		<linearGradient id="paint0_linear_331_7" x1="-81.6755" y1="62.2881" x2="119.135" y2="-46.9017"
			gradientUnits="userSpaceOnUse">
			<stop stop-color="#03ffff" />
			<stop offset="1" stop-color="#009e9e" />
		</linearGradient>
		<linearGradient id="paint1_linear_331_7" x1="-80.5381" y1="66.7301" x2="122.522" y2="-43.707"
			gradientUnits="userSpaceOnUse">
			<stop stop-color="#03ffff" />
			<stop offset="1" stop-color="#03ffff" />
		</linearGradient>
		<linearGradient id="paint2_linear_331_7" x1="-84.8013" y1="60.8123" x2="119.035" y2="-51.6212"
			gradientUnits="userSpaceOnUse">
			<stop stop-color="#03ffff" />
			<stop offset="1" stop-color="#03ffff" />
		</linearGradient>
		<linearGradient id="paint3_linear_331_7" x1="-82.7804" y1="61.5797" x2="119.218" y2="-48.2477"
			gradientUnits="userSpaceOnUse">
			<stop stop-color="#03ffff" />
			<stop offset="1" stop-color="#03ffff" />
		</linearGradient>
	</defs>
</svg>
