<svg width="24" height="24" viewBox="0 0 24 24" fill="none" xmlns="http://www.w3.org/2000/svg">
	<path
		d="M24.049 17.6232C23.6751 16.511 23.0066 15.5213 22.1148 14.7597C21.223 13.9981 20.1414 13.4931 18.9853 13.2987C18.6696 13.2447 18.3451 13.2843 18.0516 13.4127C17.7581 13.5411 17.5086 13.7526 17.3339 14.0213L15.9558 16.0029C15.8839 16.1074 15.7797 16.1854 15.6592 16.225C15.5387 16.2645 15.4085 16.2634 15.2887 16.2219C13.8605 15.6548 12.5315 14.8639 11.3515 13.879C10.06 12.7953 8.97127 11.4904 8.13609 10.0253C8.09839 9.96354 8.07328 9.89495 8.06222 9.82345C8.05116 9.75196 8.05437 9.67898 8.07166 9.60873C8.08895 9.53849 8.11997 9.47237 8.16295 9.4142C8.20592 9.35603 8.25998 9.30697 8.32202 9.26984L10.1047 8.07651C10.4023 7.87784 10.628 7.58838 10.7482 7.25111C10.8684 6.91384 10.8767 6.54676 10.7718 6.20439C10.4395 5.07629 9.93008 4.00828 9.26257 3.0404C8.59757 2.07033 7.78583 1.20974 6.85649 0.489502C6.65949 0.339703 6.43176 0.235495 6.18969 0.184382C5.94763 0.133268 5.69725 0.13652 5.45659 0.193905C5.03236 0.316396 4.619 0.473857 4.22074 0.664671C2.29167 1.70894 0.850052 3.47056 0.206967 5.5694C0.0976777 5.89997 0.0976777 6.257 0.206967 6.58757C1.58736 10.9296 4.04439 14.8506 7.34865 17.9845C10.277 20.7528 13.7854 22.8324 17.6182 24.0716C17.777 24.1237 17.9433 24.1496 18.1104 24.1483C18.2883 24.1497 18.4653 24.1239 18.6353 24.0716C20.726 23.428 22.4812 21.9893 23.5241 20.0646C23.7546 19.5974 23.9308 19.1051 24.049 18.5976C24.1503 18.2807 24.1503 17.9401 24.049 17.6232ZM22.5944 19.5282C21.67 21.2027 20.1207 22.4427 18.2854 22.9768C18.1748 23.01 18.0569 23.01 17.9463 22.9768C14.2747 21.8057 10.9115 19.8268 8.10328 17.1853C4.93325 14.172 2.57457 10.4063 1.24596 6.23723C1.20761 6.12736 1.20761 6.00772 1.24596 5.89784C1.78999 4.08592 3.02326 2.56042 4.68009 1.65C5.02962 1.4801 5.39625 1.34797 5.77376 1.25587H5.88313C6.01022 1.25407 6.13397 1.29666 6.2331 1.37629C7.07579 2.02146 7.81364 2.79332 8.42045 3.66444C9.0061 4.55188 9.44552 5.52774 9.72192 6.55473C9.7616 6.67423 9.76059 6.80353 9.71903 6.92239C9.67747 7.04125 9.59771 7.14297 9.49224 7.21161L7.70956 8.35021C7.36969 8.58787 7.12933 8.94267 7.03449 9.34667C6.93964 9.75067 6.99699 10.1755 7.19553 10.5398C8.92229 13.5638 11.6206 15.9137 14.8512 17.2072C15.2039 17.3444 15.593 17.3562 15.9533 17.2406C16.3137 17.125 16.6234 16.889 16.8308 16.5722L18.1541 14.5906C18.2125 14.4988 18.2963 14.426 18.3954 14.3813C18.4945 14.3366 18.6045 14.3218 18.7119 14.3388C19.6841 14.5012 20.5935 14.9267 21.3415 15.5693C22.0894 16.2119 22.6475 17.0471 22.9554 17.9845C22.9822 18.0886 22.9822 18.1979 22.9554 18.302C22.8625 18.7248 22.7231 19.1361 22.5398 19.5282H22.5944Z"
		fill="#03FFFF" />
</svg>
