<svg width="24" height="24" viewBox="0 0 24 24" fill="none" xmlns="http://www.w3.org/2000/svg">
	<path
		d="M4.84314 5.26788L10.3861 12.6794L4.80811 18.7053H6.06339L10.947 13.4294L14.8928 18.7053H19.1649L13.31 10.877L18.5019 5.26815H17.2466L12.7492 10.1267L9.11531 5.26788H4.84314ZM6.68931 6.19255H8.65192L17.3185 17.7804H15.3559L6.68931 6.19255Z"
		fill="#03FFFF" />
	<path
		d="M11.9865 23.8413C5.44985 23.8413 0.131836 18.5233 0.131836 11.9866C0.131836 5.44991 5.44985 0.131897 11.9865 0.131897C18.5232 0.131897 23.8412 5.44991 23.8412 11.9866C23.8412 18.5233 18.5232 23.8413 11.9865 23.8413ZM11.9865 0.922209C5.88557 0.922209 0.922148 5.88563 0.922148 11.9866C0.922148 18.0875 5.88557 23.051 11.9865 23.051C18.0875 23.051 23.0509 18.0875 23.0509 11.9866C23.0509 5.88563 18.0875 0.922209 11.9865 0.922209Z"
		fill="#03FFFF" />
</svg>
