<svg width="24" height="25" viewBox="0 0 24 25" fill="none" xmlns="http://www.w3.org/2000/svg">
	<path
		d="M20.4128 3.48225C19.3124 2.37369 18.0027 1.49497 16.5598 0.897158C15.1168 0.299349 13.5694 -0.00558121 12.0075 7.73318e-05C9.91955 0.00211861 7.86864 0.552722 6.06035 1.59675C4.25207 2.64077 2.74984 4.14157 1.70408 5.94884C0.658312 7.75612 0.105756 9.80647 0.101704 11.8944C0.097666 13.9825 0.642296 16.0349 1.68105 17.8462L0 24.0151L6.30394 22.3641C8.04465 23.3325 10.0006 23.8486 11.9925 23.865C15.159 23.8652 18.1974 22.6144 20.4461 20.3852C22.6949 18.1562 23.9722 15.1289 24 11.9626C23.9895 10.3825 23.6671 8.82012 23.0516 7.3649C22.436 5.90966 21.5392 4.59025 20.4128 3.48225ZM12.0075 21.8087C10.2329 21.8099 8.49082 21.3329 6.96435 20.4279L6.60413 20.2027L2.86679 21.1933L3.85741 17.5461L3.61726 17.1708C2.34034 15.1096 1.86377 12.6515 2.27785 10.2623C2.69193 7.87319 3.96789 5.71889 5.86401 4.20755C7.76015 2.6962 10.1447 1.93278 12.566 2.0619C14.9873 2.19101 17.2773 3.20371 19.0019 4.90815C20.8871 6.75158 21.9662 9.26613 22.0038 11.9025C21.98 14.538 20.9163 17.0575 19.0442 18.9128C17.1722 20.768 14.6432 21.8089 12.0075 21.8087ZM17.4259 14.3941C17.1257 14.244 15.6698 13.5235 15.3996 13.4335C15.1295 13.3434 14.9193 13.2834 14.7242 13.5836C14.4306 13.986 14.1148 14.3717 13.7786 14.7393C13.6135 14.9494 13.4334 14.9644 13.1332 14.7393C11.4217 14.063 9.9958 12.8172 9.09569 11.2121C8.78049 10.6868 9.39587 10.7168 9.96623 9.59109C10.0084 9.50989 10.0303 9.41983 10.0303 9.32842C10.0303 9.23702 10.0084 9.14696 9.96623 9.06576C9.96623 8.91565 9.29081 7.44473 9.05066 6.85937C8.81051 6.274 8.57036 6.36406 8.37523 6.34905H7.78987C7.6382 6.35137 7.48878 6.38606 7.35159 6.45076C7.21441 6.51547 7.09262 6.60872 6.99437 6.72428C6.65759 7.05176 6.39491 7.44761 6.22403 7.88517C6.05315 8.32272 5.97804 8.79182 6.00375 9.26088C6.09786 10.3837 6.52072 11.4539 7.21951 12.3378C8.49861 14.2527 10.2516 15.8039 12.3077 16.8406C13.3861 17.4701 14.6394 17.7334 15.8799 17.5911C16.293 17.5091 16.6843 17.3412 17.0281 17.098C17.3722 16.855 17.6611 16.5422 17.8762 16.1802C18.0755 15.7383 18.1382 15.2471 18.0563 14.7693C17.9212 14.6192 17.7261 14.5442 17.4259 14.3941Z"
		fill="#03FFFF" />
</svg>
